<svg xmlns="http://www.w3.org/2000/svg" version="1.1" viewBox="-5.0 -10.0 110.0 135.0">
 <g>
  <path d="m25 96.875c-5.1758 0-9.375-4.1992-9.375-9.375v-3.125h6.25v3.125c0 1.7266 1.3984 3.125 3.125 3.125h56.25c1.7266 0 3.125-1.3984 3.125-3.125v-75c0-1.7266-1.3984-3.125-3.125-3.125h-56.25c-1.7266 0-3.125 1.3984-3.125 3.125v9.375h3.125c1.7266 0 3.125 1.3984 3.125 3.125s-1.3984 3.125-3.125 3.125h-12.5c-1.7266 0-3.125-1.3984-3.125-3.125s1.3984-3.125 3.125-3.125h3.125v-9.375c0-5.1758 4.1992-9.375 9.375-9.375h56.25c5.1758 0 9.375 4.1992 9.375 9.375v75c0 5.1758-4.1992 9.375-9.375 9.375z" fill="#00A36C"/>
  <path d="m21.875 59.375v12.5h3.125c1.7266 0 3.125 1.3984 3.125 3.125s-1.3984 3.125-3.125 3.125h-12.5c-1.7266 0-3.125-1.3984-3.125-3.125s1.3984-3.125 3.125-3.125h3.125v-12.5z" fill="#00A36C"/>
  <path d="m21.875 34.375v12.5h3.125c1.7266 0 3.125 1.3984 3.125 3.125s-1.3984 3.125-3.125 3.125h-12.5c-1.7266 0-3.125-1.3984-3.125-3.125s1.3984-3.125 3.125-3.125h3.125v-12.5z" fill="#00A36C"/>
  <path d="m37.5 37.5c-1.7266 0-3.125-1.3984-3.125-3.125v-12.5c0-1.7266 1.3984-3.125 3.125-3.125h31.25c1.7266 0 3.125 1.3984 3.125 3.125v12.5c0 1.7266-1.3984 3.125-3.125 3.125zm3.125-6.25h25v-6.25h-25z" fill-rule="evenodd" fill="#00A36C"/>
 </g>
</svg>