<svg xmlns="http://www.w3.org/2000/svg" version="1.1" viewBox="-5.0 -10.0 110.0 135.0">
 <g>
  <path d="m53.125 29.688c0-1.7266-1.3984-3.125-3.125-3.125s-3.125 1.3984-3.125 3.125v1.6562c-6 0.042969-10.938 4.8555-10.938 10.891 0 6.0625 4.9844 10.891 11.023 10.891h6.0781c2.6875 0 4.7734 2.1289 4.7734 4.6406 0 2.5156-2.0859 4.6406-4.7734 4.6406h-13.977c-1.7266 0-3.125 1.4023-3.125 3.125 0 1.7266 1.3984 3.125 3.125 3.125h7.8125v1.6562c0 1.7266 1.3984 3.125 3.125 3.125s3.125-1.3984 3.125-3.125v-1.6562c6-0.042969 10.938-4.8555 10.938-10.891 0-6.0625-4.9844-10.891-11.023-10.891h-6.0781c-2.6875 0-4.7734-2.1289-4.7734-4.6406 0-2.5156 2.0859-4.6406 4.7734-4.6406h13.977c1.7266 0 3.125-1.4023 3.125-3.125 0-1.7266-1.3984-3.125-3.125-3.125h-7.8125z" fill="#00A36C"/>
  <path d="m96.875 50c0-25.887-20.988-46.875-46.875-46.875s-46.875 20.988-46.875 46.875 20.988 46.875 46.875 46.875 46.875-20.988 46.875-46.875zm-46.875-40.625c22.438 0 40.625 18.188 40.625 40.625s-18.188 40.625-40.625 40.625-40.625-18.188-40.625-40.625 18.188-40.625 40.625-40.625z" fill-rule="evenodd" fill="#00A36C"/>
 </g>
</svg>