<svg xmlns="http://www.w3.org/2000/svg" viewBox="0 0 100 125" x="0px" y="0px"><path d="M4.34,16.03c-.74,.37-1.05,1.27-.68,2.01l2.48,5.05c.18,.36,.49,.63,.86,.76,.38,.13,.79,.1,1.15-.07l13.01-6.4,12.01,24.39h-9.6c-.49,0-.95,.24-1.23,.64-1.9,2.72-3.39,5.71-4.42,8.88,0,0,0,0,0,0,0,0,0,0,0,0-1.09,3.35-1.64,6.85-1.64,10.38,0,18.59,15.13,33.72,33.72,33.72s33.72-15.13,33.72-33.72c0-2.68-.32-5.37-.97-8-.01-.04-.03-.08-.04-.12-.97-3.98-2.66-7.72-5.04-11.14-.28-.4-.74-.64-1.23-.64h-5.01l6.5-16.5c1.15,1.02,1.86,1.91,1.87,1.93,.01,.02,.03,.03,.04,.04,0,.01,.01,.02,.02,.04,.02,.02,.05,.04,.07,.06,.06,.06,.12,.12,.19,.17,.04,.03,.08,.05,.12,.08,.07,.04,.14,.07,.22,.1,.04,.02,.08,.03,.13,.05,.09,.02,.17,.04,.26,.04,.04,0,.07,.01,.11,.01,0,0,.02,0,.03,0,.07,0,.14,0,.21-.01,.03,0,.05-.02,.08-.02,.03,0,.05,0,.08,0,6.97-1.74,12.39,4.89,12.47,5,.29,.36,.73,.57,1.17,.57,.16,0,.31-.02,.47-.07,.6-.19,1.01-.74,1.03-1.37,0-.19,.55-19.13-15.73-25.54,0,0,0,0,0,0,0,0,0,0,0,0C64.47-.12,51.95,14.11,51.83,14.25c-.41,.48-.48,1.16-.18,1.71,.3,.55,.92,.86,1.54,.76,.09-.01,8.59-1.22,12.53,4.85,.02,.03,.04,.04,.06,.07,.01,.02,.02,.04,.04,.06,.02,.02,.05,.04,.07,.06,.05,.06,.11,.11,.17,.16,.04,.03,.09,.06,.13,.09,.06,.04,.12,.07,.19,.1,.05,.02,.11,.05,.16,.06,.06,.02,.13,.03,.19,.05,.06,.01,.12,.02,.19,.02,.02,0,.05,0,.07,0,.05,0,.1,0,.15,0,.02,0,.03,0,.05-.01,.02,0,.03,0,.05,0,.02,0,1.15-.18,2.69-.14l-7.74,19.66h-19.39L27.84,11.41c-.74-1.5-2.01-2.61-3.59-3.15-1.58-.54-3.27-.43-4.77,.31l-15.15,7.46Zm79.18-4.96c7.13,4.65,9.18,12.4,9.76,16.98-2.19-1.74-5.5-3.63-9.51-3.63-.2,0-.41,0-.62,.02,.83-3.02,1.85-8.42,.37-13.36Zm-2.79,50.58c0,16.94-13.78,30.72-30.72,30.72s-30.72-13.78-30.72-30.72c0-2.22,.24-4.43,.71-6.59,.93,.93,2.18,1.83,3.73,2.2,2.05,.49,4.16-.03,6.24-1.55,4.84-3.52,6.86-2.36,11.34,3.48,.23,.3,.47,.56,.71,.79,.74,.69,1.58,1.07,2.5,1.13,2.49,.19,4.71-1.98,7.05-4.27,2.09-2.04,4.45-4.35,6.15-3.82,2.34,.73,3.36,2.17,4.43,3.69,1.13,1.6,2.41,3.42,5.16,3.68,2.8,.26,4.77-1.69,6.51-3.41,2.33-2.29,3.72-3.48,6.16-2.05,.49,2.21,.74,4.47,.74,6.7Zm-11.8-47.46s-.03,.04-.04,.06c-.31,.44-.6,.87-.86,1.29-.02,.02-.03,.05-.04,.07-.25,.4-.48,.78-.69,1.15-.02,.04-.04,.07-.06,.11-.2,.36-.39,.7-.55,1.01,0,.01-.02,.03-.02,.04-2.99-3.07-6.94-4.02-9.87-4.26,3.55-2.95,10.33-7.22,18.71-5.76-.03,.02-.05,.04-.08,.05-.51,.3-1,.63-1.47,.97-.03,.02-.07,.05-.1,.07-.49,.37-.97,.76-1.42,1.17,0,0,0,0-.01,.01-.44,.41-.86,.83-1.26,1.26-.03,.04-.07,.07-.1,.11-.37,.41-.73,.82-1.06,1.23-.03,.04-.07,.08-.1,.12-.34,.43-.66,.85-.96,1.28Zm.51,4.89c1.61-3.02,5.03-8.21,10.1-9.68,.03,.05,.06,.1,.08,.15,.11,.19,.21,.38,.31,.58,.04,.08,.08,.15,.11,.23,.12,.26,.24,.53,.34,.8,0,0,0,0,0,0,.1,.27,.19,.55,.27,.82,.02,.08,.05,.16,.07,.25,.06,.21,.11,.42,.16,.64,.02,.08,.04,.16,.05,.24,.06,.28,.11,.57,.15,.85,0,.02,0,.04,0,.06,.04,.27,.07,.54,.09,.81,0,.08,.01,.17,.02,.25,.02,.22,.03,.44,.04,.65,0,.08,0,.15,0,.23,0,.29,.01,.57,0,.85,0,.03,0,.06,0,.09,0,.26-.01,.51-.03,.76,0,.08,0,.16-.01,.25-.01,.21-.03,.42-.05,.63,0,.07-.01,.14-.02,.21-.03,.27-.05,.54-.09,.8,0,.04-.01,.08-.02,.12-.03,.22-.06,.44-.1,.66-.01,.08-.02,.15-.04,.23-.03,.19-.06,.38-.1,.56-.01,.06-.02,.12-.03,.18-.04,.23-.09,.46-.14,.68-.01,.05-.02,.1-.03,.14-.04,.17-.08,.34-.12,.5-.02,.07-.03,.14-.05,.21-.03,.14-.07,.28-.1,.41-.01,.04-.02,.08-.03,.13-1.2-1.12-2.93-2.45-5-3.26-2.07-.82-4.25-1.02-5.89-1.02Zm3.54,3.42c.42,.11,.84,.24,1.25,.4,.41,.16,.81,.35,1.18,.56l-7.21,18.29h-2.81l7.58-19.25Zm2.67,22.25c1.39,2.09,2.49,4.32,3.31,6.64-.05,0-.09,0-.14-.02-.08-.01-.16-.02-.24-.03-.15-.02-.3-.02-.45-.03-.08,0-.16,0-.24,0-.17,0-.34,.02-.51,.04-.09,.01-.18,.02-.27,.04-.15,.02-.3,.05-.44,.09-.09,.02-.18,.05-.27,.08-.11,.03-.21,.07-.32,.1-.09,.03-.18,.07-.27,.1-.11,.04-.21,.09-.31,.14-.09,.04-.18,.08-.27,.13-.15,.08-.3,.16-.45,.25-.08,.05-.17,.11-.25,.16-.09,.06-.17,.11-.26,.17-.08,.06-.16,.12-.24,.18-.09,.06-.17,.13-.25,.19-.07,.06-.15,.11-.22,.17-.14,.11-.28,.23-.41,.35-.07,.06-.14,.12-.2,.18-.08,.07-.16,.15-.24,.22-.07,.06-.14,.13-.2,.19-.08,.08-.16,.15-.24,.23-.06,.06-.12,.12-.18,.18-.12,.12-.25,.24-.36,.36-1.46,1.44-2.73,2.69-4.13,2.56-1.31-.12-1.89-.87-2.98-2.42-1.19-1.69-2.67-3.8-5.99-4.83-3.41-1.06-6.45,1.91-9.14,4.53-1.6,1.56-3.61,3.52-4.74,3.42-.12,0-.5-.04-1.05-.75-.23-.3-.45-.58-.68-.87-.06-.07-.12-.15-.17-.22-.46-.58-.92-1.13-1.39-1.65-.06-.06-.12-.13-.17-.19-.23-.25-.47-.5-.7-.73,0,0,0,0-.01-.01-.24-.23-.48-.45-.72-.66-.06-.05-.12-.1-.18-.16-.24-.2-.48-.4-.73-.58,0,0-.01,0-.02-.01-.25-.18-.51-.34-.76-.49-.06-.04-.13-.07-.19-.11-.26-.14-.51-.27-.78-.38,0,0-.02,0-.02-.01-.27-.11-.55-.2-.83-.28-.07-.02-.14-.04-.21-.05-.28-.07-.56-.12-.84-.15-.01,0-.02,0-.03,0-.23-.02-.46-.04-.69-.04-.07,0-.15,0-.22,.01-.08,0-.15,0-.23,.01-.31,.02-.62,.05-.94,.12,0,0-.02,0-.03,0-.33,.06-.66,.16-1.01,.27-.08,.03-.17,.06-.25,.09-.34,.12-.69,.26-1.06,.43,0,0,0,0-.01,0-.36,.17-.74,.38-1.12,.61-.09,.06-.19,.11-.28,.17-.39,.24-.78,.5-1.19,.8-1.36,.99-2.59,1.34-3.76,1.06-.19-.04-.37-.11-.55-.18-.05-.02-.09-.04-.13-.06-.16-.07-.31-.15-.46-.23-.01,0-.03-.02-.04-.02-.16-.1-.31-.2-.46-.32-.04-.03-.07-.05-.11-.08-.13-.1-.25-.2-.36-.31-.02-.02-.04-.03-.06-.05-.13-.12-.25-.25-.37-.37-.03-.03-.05-.06-.07-.08-.1-.11-.19-.21-.27-.32-.02-.02-.03-.04-.05-.06-.1-.12-.18-.24-.26-.35-.02-.02-.03-.04-.05-.06-.07-.09-.13-.18-.18-.26,0-.01-.02-.02-.02-.04,.84-2.41,1.97-4.69,3.37-6.81h51.29ZM25.15,12.74l14.29,29.01h-2.93L23.39,15.12c-.23-.47-.63-.83-1.13-1-.21-.07-.42-.11-.64-.11-.3,0-.59,.07-.87,.2l-12.58,6.2-1.16-2.35,13.8-6.8c1.6-.79,3.55-.13,4.34,1.48Z" fill="#00A36C"/></svg>