<svg xmlns="http://www.w3.org/2000/svg" version="1.1" viewBox="-5.0 -10.0 110.0 135.0">
 <path d="m21.207 60.848c2.9023 0 5.5352 1.1797 7.4375 3.082l0.11719 0.125c1.1562 1.1914 2.0273 2.6562 2.5195 4.2852h37.445c0.50781-1.6836 1.4258-3.1875 2.6328-4.4023 1.9023-1.9102 4.5312-3.0898 7.4375-3.0898 2.9023 0 5.5352 1.1797 7.4375 3.082l0.11719 0.125c1.1562 1.1914 2.0273 2.6562 2.5195 4.2852h4.3516v-5.4453c0-1.5273-0.62109-2.9102-1.6211-3.9102-0.99219-0.99609-2.3594-1.6133-3.8633-1.6289h-80.961v10.98h4.3555c0.50781-1.6836 1.4258-3.1875 2.6328-4.4023 1.9023-1.9102 4.5312-3.0898 7.4375-3.0898zm11.488-38.738v15.629c0 1.1055-0.89453 2-2 2-0.52734 0-1.0078-0.20703-1.3672-0.53906l-6.6992-5.6016-6.7812 5.6719c-0.84375 0.70703-2.1055 0.59375-2.8125-0.25-0.3125-0.37109-0.46484-0.82812-0.46484-1.2812l-0.003906-15.629h-5.7812v31.25h56.531v-26.512c0-1.3008-0.53516-2.4883-1.3945-3.3438-0.85938-0.85938-2.0469-1.3945-3.3438-1.3945zm-16.133 0v11.352l4.7773-3.9883c0.73047-0.61719 1.8164-0.64062 2.5703-0.007812l4.7852 4v-11.352h-12.133zm-13.777 33.25v-35.25c0-1.1055 0.89453-2 2-2h53.797c2.4023 0 4.5898 0.98438 6.1719 2.5664 1.5859 1.5859 2.5664 3.7695 2.5664 6.1758v7.3789h13.023c2.5703 0 4.9102 1.0508 6.6055 2.7461l0.11719 0.12891c1.625 1.6836 2.6289 3.9727 2.6289 6.4766v9.9883c1.8164 0.39453 3.4453 1.3125 4.7227 2.582l0.007812 0.007812c1.7305 1.7344 2.8047 4.1172 2.8047 6.7305v7.4414c0 1.1055-0.89453 2-2 2h-5.9531c-0.23047 2.5156-1.3516 4.7773-3.0352 6.4688-1.9023 1.9023-4.5312 3.082-7.4375 3.082-2.9023 0-5.5352-1.1797-7.4375-3.082-1.6875-1.6875-2.8047-3.9492-3.0352-6.4688h-36.641c-0.23047 2.5156-1.3516 4.7773-3.0352 6.4688-1.9023 1.9023-4.5312 3.082-7.4375 3.082-2.9023 0-5.5352-1.1797-7.4375-3.082-1.6875-1.6875-2.8047-3.9492-3.0352-6.4688h-5.9531c-1.1055 0-2-0.89453-2-2v-14.98zm82.906-2v-9.7773c0-1.4297-0.5625-2.7266-1.4805-3.6914l-0.09375-0.085937c-0.96875-0.96875-2.3086-1.5703-3.7773-1.5703h-13.023v15.129h18.375zm-2.2812 13.398c-1.1797-1.1797-2.8125-1.9062-4.6094-1.9062-1.8008 0-3.4336 0.73047-4.6094 1.9062-1.1797 1.1719-1.9062 2.8086-1.9062 4.6094 0 1.8008 0.73047 3.4336 1.9062 4.6094 1.1797 1.1797 2.8125 1.9062 4.6094 1.9062 1.8008 0 3.4336-0.73047 4.6094-1.9062 1.1797-1.1797 1.9062-2.8125 1.9062-4.6094 0-1.7539-0.69141-3.3516-1.8125-4.5195l-0.097656-0.089844zm-57.59 0c-1.1797-1.1797-2.8125-1.9062-4.6094-1.9062-1.8008 0-3.4336 0.73047-4.6094 1.9062-1.1797 1.1719-1.9062 2.8086-1.9062 4.6094 0 1.8008 0.73047 3.4336 1.9062 4.6094 1.1797 1.1797 2.8125 1.9062 4.6094 1.9062 1.8008 0 3.4336-0.73047 4.6094-1.9062 1.1797-1.1797 1.9062-2.8125 1.9062-4.6094 0-1.7539-0.69141-3.3516-1.8125-4.5195l-0.097656-0.089844z"/>
</svg>