<svg xmlns="http://www.w3.org/2000/svg" version="1.1" viewBox="-5.0 -10.0 110.0 135.0">
 <path d="m5 22.562h23.172v-14.625c0-1.1055 0.89453-2 2-2h39.652c1.1055 0 2 0.89453 2 2v14.625h23.172c1.1055 0 2 0.89453 2 2v67.5c0 1.1055-0.89453 2-2 2h-90c-1.1055 0-2-0.89453-2-2v-67.5c0-1.1055 0.89453-2 2-2zm27.176 0h2.8164v-7.8047c0-1.1055 0.89453-2 2-2h26.012c1.1055 0 2 0.89453 2 2v7.8047h2.8164v-12.625h-35.652v12.625zm6.8203 0h22.012v-5.8047h-22.012zm25.121 41.926h6.3008c1.1055 0 2 0.89453 2 2v1.6562h2.4609l10.312-6.7969v-34.789h-70.375v34.789l10.312 6.7969h2.4609v-1.6562c0-1.1055 0.89453-2 2-2h6.3008c1.1055 0 2 0.89453 2 2v1.6562h24.23v-1.6562c0-1.1055 0.89453-2 2-2zm8.3008 7.6562v2.4141c0 1.4141-0.57812 2.6992-1.5117 3.6328-0.94141 0.9375-2.2266 1.5195-3.6406 1.5195-1.4102 0-2.6992-0.57813-3.6328-1.5117-0.9375-0.94141-1.5195-2.2266-1.5195-3.6406v-2.4102h-24.23v2.4102c0 1.4141-0.57812 2.6992-1.5117 3.6328-0.94141 0.9375-2.2305 1.5195-3.6406 1.5195-1.4141 0-2.6992-0.57813-3.6328-1.5117-0.9375-0.94141-1.5195-2.2266-1.5195-3.6406v-2.4102h-3.043c-0.47656 0-0.91016-0.16406-1.2539-0.44141l-11.566-7.625c-0.58203-0.38281-0.89453-1.0156-0.89844-1.6641l-0.007812-35.855h-3.8086v63.5h86v-63.5h-3.8125v35.855c0 0.76562-0.43359 1.4336-1.0664 1.7695l-11.57 7.625c-0.33594 0.22266-0.71875 0.32812-1.0938 0.32812l-3.043 0.007813zm-4-3.6523h-2.2969v6.0664c0 0.31641 0.12891 0.60547 0.33594 0.81641 0.20703 0.20312 0.49609 0.33594 0.81641 0.33594 0.31641 0 0.60547-0.12891 0.81641-0.33594 0.20312-0.20703 0.33594-0.49609 0.33594-0.81641v-6.0664zm-34.531 0h-2.2969v6.0664c0 0.31641 0.12891 0.60547 0.33594 0.81641 0.20703 0.20312 0.49609 0.33594 0.81641 0.33594 0.31641 0 0.60547-0.12891 0.81641-0.33594 0.20312-0.20703 0.33594-0.49609 0.33594-0.81641v-6.0664z" fill="#00A36C"/>
</svg>